<?xml version="1.0" encoding="UTF-8" standalone="no"?>
<svg
   version="1.1"
   id="svg2"
   viewBox="0 0 106 106"
   height="106"
   width="106"
   xmlns="http://www.w3.org/2000/svg"
   xmlns:svg="http://www.w3.org/2000/svg"
   xmlns:rdf="http://www.w3.org/1999/02/22-rdf-syntax-ns#"
   xmlns:cc="http://creativecommons.org/ns#"
   xmlns:dc="http://purl.org/dc/elements/1.1/">
  <defs
     id="defs4" />
  <metadata
     id="metadata7">
    <rdf:RDF>
      <cc:Work
         rdf:about="">
        <dc:format>image/svg+xml</dc:format>
        <dc:type
           rdf:resource="http://purl.org/dc/dcmitype/StillImage" />
      </cc:Work>
    </rdf:RDF>
  </metadata>
  <g
     transform="translate(-1690.9939,-660.30924)"
     id="layer1">
    <path
       id="circle1"
       style="fill:#25a162;fill-opacity:1;stroke-width:0.377953"
       d="m 1763.1638,663.96744 v 13.15039 c -2.5,-0.5592 -5.5593,-0.83984 -9.1777,-0.83984 -22.9933,0 -34.4902,14.11243 -34.4902,42.33594 0,6.67759 1.0191,12.40021 3.0585,17.16992 0.9595,2.19308 2.1063,4.14773 3.4395,5.86133 v 21.40429 c 5.7657,2.12164 11.8564,3.22466 18,3.25977 29.2711,0 53,-23.72891 53,-53 -0.029,-21.84797 -13.4613,-41.43949 -33.8301,-49.3418 z" />
    <path
       d="m 1719.4957,718.61345 q 0,-42.33526 34.4899,-42.33526 5.4276,0 9.1776,0.83881 v 9.67099 q -3.75,-1.08552 -8.6841,-1.08552 -11.5954,0 -17.4177,6.21707 -5.8223,6.21707 -6.3157,19.93409 h 0.5921 q 2.319,-3.99669 6.5131,-6.16773 4.194,-2.22038 9.8683,-2.22038 9.8191,0 15.296,6.0197 5.4769,6.0197 5.4769,16.33214 0,11.34861 -6.3651,17.96041 -6.3157,6.56246 -17.2696,6.56246 -7.7467,0 -13.4703,-3.70064 -5.7237,-3.74997 -8.8322,-10.85519 -3.0592,-7.15456 -3.0592,-17.17095 z m 25.1643,22.15447 q 5.9704,0 9.1776,-3.84866 3.2566,-3.84866 3.2566,-11.00322 0,-6.21707 -3.0592,-9.76968 -3.0099,-3.55261 -9.0789,-3.55261 -3.75,0 -6.9079,1.62828 -3.1578,1.57894 -4.9835,4.39142 -1.8256,2.76314 -1.8256,5.67431 0,6.95719 3.7499,11.74335 3.7994,4.73681 9.671,4.73681 z"
       id="text4"
       style="font-weight:600;font-size:101.052px;font-family:'Open Sans';-inkscape-font-specification:'Open Sans, Semi-Bold';text-align:center;text-anchor:middle;fill:#ffffff;stroke-width:0.722375"
       aria-label="6" />
    <path
       id="rect1"
       style="fill:#dc524a;fill-opacity:1;stroke-width:39.6986"
       d="m 1743.9939,660.30924 a 53,53 0 0 0 -53,52.98047 53,53 0 0 0 0,0.0195 53,53 0 0 0 0,0.0195 53,53 0 0 0 35,49.83008 v -21.51367 c -1.3332,-1.7136 -2.48,-3.66825 -3.4395,-5.86133 -2.0394,-4.76971 -3.0585,-10.49233 -3.0585,-17.16992 0,-28.22351 11.4969,-42.33594 34.4902,-42.33594 3.6184,0 6.6777,0.28064 9.1777,0.83984 v 8.19141 0 -21.41016 a 53,53 0 0 0 -19.1719,-3.58984 z" />
    <path
       id="path5"
       style="fill:#dc524a;fill-opacity:1;stroke-width:0.377953"
       d="M 1744.9568 712.5944 C 1742.4568 712.5944 1740.1538 713.13583 1738.0486 714.22135 C 1735.9433 715.27397 1734.2813 716.73894 1733.0642 718.61393 C 1731.8471 720.45602 1731.24 722.34698 1731.24 724.28776 C 1731.24 728.92588 1732.49 732.84113 1734.99 736.0319 C 1737.5229 739.18977 1740.7455 740.76822 1744.6599 740.76822 C 1748.6402 740.76822 1751.6996 739.48439 1753.8376 736.91862 C 1756.0087 734.35284 1757.0935 730.68637 1757.0935 725.91666 C 1757.0935 721.77195 1756.0744 718.51554 1754.0349 716.14713 C 1752.0283 713.77872 1749.0028 712.5944 1744.9568 712.5944 z " />
    <path
       id="path6"
       style="fill:#dc524a;fill-opacity:1;stroke-width:0.377953"
       d="M 1744.9568 712.5944 C 1742.4568 712.5944 1740.1538 713.13583 1738.0486 714.22135 C 1735.9433 715.27397 1734.2813 716.73894 1733.0642 718.61393 C 1731.8471 720.45602 1731.24 722.34698 1731.24 724.28776 C 1731.24 728.92588 1732.49 732.84113 1734.99 736.0319 C 1737.5229 739.18977 1740.7455 740.76822 1744.6599 740.76822 C 1748.6402 740.76822 1751.6996 739.48439 1753.8376 736.91862 C 1756.0087 734.35284 1757.0935 730.68637 1757.0935 725.91666 C 1757.0935 721.77195 1756.0744 718.51554 1754.0349 716.14713 C 1752.0283 713.77872 1749.0028 712.5944 1744.9568 712.5944 z " />
  </g>
</svg>
