<?xml version="1.0" encoding="UTF-8" standalone="no"?>
<svg
   id="Layer_1"
   data-name="Layer 1"
   viewBox="0 0 1000 283.4"
   version="1.1"
   width="1000"
   height="283.39999"
   xmlns="http://www.w3.org/2000/svg"
   xmlns:svg="http://www.w3.org/2000/svg">
  <defs
     id="defs1">
    <style
       id="style1">
      .cls-1 {
        fill: #d84445;
      }

      .cls-2 {
        fill: #fff;
      }

      .cls-3 {
        fill: #299d5b;
      }
    </style>
  </defs>
  <path
     class="cls-2"
     d="m 419.62,167.74 c 0,15.53 -2.69,26.14 -8.07,31.81 -5.38,5.67 -15.83,8.51 -31.36,8.51 -6.18,0 -11.65,-0.2 -16.43,-0.6 -4.78,-0.4 -9.26,-1.09 -13.44,-2.09 v 32.86 c 4.18,1.2 9.11,2.09 14.79,2.69 5.68,0.6 12.1,0.9 19.27,0.9 25.29,0 43.46,-5.62 54.52,-16.88 11.05,-11.25 16.58,-29.62 16.58,-55.11 V 51.84 h -35.84 v 115.9 z"
     id="path1"
     style="fill:#d6d9d6;fill-opacity:1" />
  <path
     class="cls-2"
     d="m 607.8,162.37 c 0,17.32 -2.99,29.27 -8.96,35.84 -5.97,6.57 -16.93,9.86 -32.86,9.86 -15.93,0 -26.58,-3.24 -32.56,-9.71 -5.97,-6.47 -8.96,-18.47 -8.96,-35.99 V 51.84 h -35.84 v 110.52 c 0,27.88 6.17,48.09 18.52,60.64 12.34,12.55 31.96,18.82 58.84,18.82 26.88,0 45.8,-6.52 58.55,-19.57 12.74,-13.04 19.12,-33.01 19.12,-59.89 V 51.84 H 607.8 v 110.52 z"
     id="path2"
     style="fill:#d6d9d6;fill-opacity:1" />
  <path
     class="cls-2"
     d="m 758.35,88.58 c -10.95,0 -20.46,1.45 -28.53,4.33 -8.06,2.89 -15.58,7.42 -22.55,13.59 h -0.9 l -1.49,-14.94 h -29.87 v 147.56 h 34.65 V 129.79 c 5.38,-3.38 11.15,-5.92 17.32,-7.62 6.17,-1.69 12.55,-2.54 19.12,-2.54 9.16,0 16.08,1.84 20.76,5.53 4.68,3.69 7.02,9.11 7.02,16.28 v 97.68 h 34.65 V 136.96 c 0,-15.93 -4.28,-27.98 -12.85,-36.14 -8.56,-8.16 -21.01,-12.25 -37.34,-12.25 z"
     id="path3"
     style="fill:#d6d9d6;fill-opacity:1" />
  <rect
     class="cls-2"
     x="839.29999"
     y="40.490002"
     width="36.740002"
     height="30.17"
     id="rect3"
     style="fill:#d6d9d6;fill-opacity:1" />
  <rect
     class="cls-2"
     x="840.48999"
     y="91.57"
     width="34.650002"
     height="147.56"
     id="rect4"
     style="fill:#d6d9d6;fill-opacity:1" />
  <path
     class="cls-2"
     d="m 988.95,208.82 c -4.58,0.5 -8.56,0.75 -11.95,0.75 -9.76,0 -16.53,-1.59 -20.31,-4.78 -3.79,-3.18 -5.68,-9.16 -5.68,-17.92 v -66.31 h 47.2 V 91.59 h -47.2 V 56.34 h -28.97 l -4.78,35.25 h -20.61 v 28.97 h 19.71 v 67.51 c 0,19.32 4.08,33.11 12.25,41.37 8.16,8.27 21.7,12.4 40.62,12.4 4.97,0 10.5,-0.55 16.58,-1.64 6.07,-1.09 10.8,-2.34 14.19,-3.73 V 206.9 c -2.79,0.8 -6.47,1.45 -11.05,1.94 z"
     id="path4"
     style="fill:#d6d9d6;fill-opacity:1" />
  <g
     id="g8">
    <path
       class="cls-1"
       d="M 197.75,196.87 141.7,252.92 30.48,141.7 68.75,103.43 48.14,82.82 7.57,123.39 c -10.1,10.1 -10.1,26.52 0,36.62 l 115.82,115.82 c 5.05,5.05 11.68,7.57 18.31,7.57 6.63,0 13.26,-2.53 18.31,-7.57 l 58.35,-58.35 z"
       id="path5" />
    <g
       id="g7">
      <path
         class="cls-3"
         d="M 203.1,50.66 160.01,7.57 c -10.09,-10.09 -26.52,-10.09 -36.62,0 l -57.6,57.6 20.61,20.61 55.31,-55.31 40.79,40.8 20.61,-20.61 z"
         id="path6" />
      <path
         class="cls-3"
         d="m 252.25,99.82 -20.61,20.61 21.27,21.27 -37.53,37.52 20.61,20.61 39.82,-39.82 c 4.89,-4.89 7.58,-11.39 7.58,-18.31 0,-6.92 -2.69,-13.42 -7.58,-18.31 L 252.24,99.82 Z"
         id="path7" />
    </g>
  </g>
  <path
     class="cls-2"
     d="m 141.7,175.91 c -3.73,0 -7.46,-1.42 -10.3,-4.27 l -39.28,-39.28 20.61,-20.61 28.98,28.98 99.97,-99.97 20.61,20.61 -110.28,110.28 c -2.85,2.85 -6.57,4.27 -10.3,4.27 z"
     id="path8"
     style="fill:#d6d9d6;fill-opacity:1" />
</svg>
